<?xml version="1.0" encoding="utf-8"?>
<!-- Generator: Adobe Illustrator 19.0.0, SVG Export Plug-In . SVG Version: 6.00 Build 0)  -->
<svg version="1.1"
	 id="Layer_1" xmlns:dc="http://purl.org/dc/elements/1.1/" xmlns:cc="http://creativecommons.org/ns#" xmlns:inkscape="http://www.inkscape.org/namespaces/inkscape" xmlns:sodipodi="http://sodipodi.sourceforge.net/DTD/sodipodi-0.dtd" xmlns:rdf="http://www.w3.org/1999/02/22-rdf-syntax-ns#" xmlns:svg="http://www.w3.org/2000/svg"
	 xmlns="http://www.w3.org/2000/svg" xmlns:xlink="http://www.w3.org/1999/xlink" x="0px" y="0px" viewBox="-439 241 80 80"
	 style="enable-background:new -439 241 80 80;" xml:space="preserve">
<style type="text/css">
	.st0{fill:#FFFFFF;stroke:#FFFFFF;stroke-width:1.269767e-02;}
</style>
<path class="st0" d="M-403,251.7c0.5,2-0.6-1-1.2,0.7l0.4,0.3c-2.3,2.5-5.6,0.2-7.5,2.2c-1.8,0-2,0.4-2.9,1.8c-2.4-1-3.2,2.9-5,3.3
	c-1.5-0.4-4.8-2-5.5,0.6c0.4,1.9-2.3,0.5-1.2,1.4c-2-0.2,1.2,1.4-0.9,0.6c1.9,1.1,1,3.2,2,4.3c2.5,0.6,2.8,1.3,5.3,1
	c0.5,1,3.9,1.8,4.8,2.7c-1,3.8-2.6,0.7-4.6-0.3c0.1,0.5-2.4-1.6-2.5-0.3c-0.4,2.9-5.1,3.3-6.3,3.9c1.1,0.4-0.5,1.4-0.5,1.2
	c-0.5,0.2-2.3,0.6-1.8,1.3c0.2,0.7-3.5,1-2,2.3c-2.6,0.8-0.5,6.1,1.6,3.6c4.3,0.7,5.9-0.5,10.1-1.1c4.7-0.2-3.3,4.9-3.5,2.7
	c-1.5,0.3-1.7,0.3-1.8,1.2c-3.1-0.3-5.8,0.9-9-0.6c-0.1,0.1-5.3,2.1-2.2,4.3c-1.2-1.2,0.6-0.5,1.1-0.2c-1.9,2.9,4.5,6.1,5.3,4.5
	c2.1,0.7,3.9,0.1,4.4,2.1c-1.8,1.1-3.9,0.7-3.8,1.1c-0.3,1.6-5.1,0.9-5.6,2.6c-1.3,0.5,2.5,3.3,2.2,1.7c1.3,1.2,0.5-0.5,1.5,0.1
	c3.2-0.9,2.8,2.8,5.2,1.9c1.9,1.9-0.7,0.6-1.8,2.6c1.2-1.2,0.1,0.9,1.3,1c-1.9,0.6-1.1,2.8,0.8,3.4c0.2-1.4,2.2-0.2,4-0.8
	c1.2-1.2,2.8-1.8,4.8-1.8c0.6,0.6,4.4-0.2,4.3-0.9c2.4-1.5,4.6-1.4,7-1.8c3.6-0.6,1.9,3.1,2.2,5.4c0,2.8,0.6,6.6-3,7.6
	c-4.6,1.2,1.9,0.7,3.4,1.8c3.4,0.6,6.3-2.1,8.9-1.3c1.7-1.5-4.3-0.4-4.5-2.8c-0.2-2.6-1.5-7.8,0.7-8.9c0.6,2.2,2.9-0.9,2.2,1.4
	c-1.7,2.5,2-0.5,1.7,1.3c2.2,0.5,4.5,1.4,6.8,0.6c1-1.4,4.2-0.5,3.1-2.1c2-2.9,6.4,2.4,8.9-0.4c2-0.2,6.7-0.5,3.9-3.7
	c1.9-1.2-3.7-0.5-1.2-1.2c2.5-2.5,4.7,2.6,6.6,0.3c1.7-1,3.6,0.2,5.6-1c3-1.3,0.2-5.3,0.5-6.1c-2.1,0.2,1-1.5-1-0.5
	c-1.1-3.2-5.4,0.6-6.5-0.7c2.1-0.5,3-2.3,0-2.8c2.8-0.8-0.4-3-1.8-1.8c-3.5,0.2,1,0.1,0.2-1.6c-2.2-1.1,0.5-1.6,2.1-1
	c3.5,0.9,6.6-1.9,4.7-4.6c0.8-0.8-1.4-1.6-0.7-2.5c0.7-0.9-3.2-4.3-6.1-4.9c-3-2.1-2.4,4.5-3.7,1.4c-2,1-0.6-0.3-1.1-1.1
	c1.3-3-9-1.7-3.9-3.6c0-2.9,3.1-2.8,4.2-3.8c1.7,1,1.8,0.3,3,0.4c-0.3-0.2,2-2.4,0.3-2c0.1,0-6.1-3.3-2.7-3.6c3,0.3,0.4-2.4,1.4-2.9
	c-2-3.1-4.2,2.6-6.4,0c2.2-3-2.6,0.5-4.1-0.3c0.4,2-2.9,1.9-2.1,3.2c-1.9-1.3-5.6,0.8-5.2-2.3c0.9,0.2,5.3,0.5,4.7-1.7
	c-0.3-2.1-1.9-2.1-4.4-2.1c-0.2,1.6-5.2-1.3-0.6-1.5c1.4-1.6-3-1.7-4.3-2.5c0.9,2.5-4.8,2-2.2,1c-0.6-2-2.2-1.4-4.5-0.9
	C-402.5,251.2-402.1,253.4-403,251.7L-403,251.7z M-371.3,268.4C-371.3,268.4-371.3,268.4-371.3,268.4
	C-371.2,268.4-371.3,268.4-371.3,268.4z M-428.7,275.2c0.1-0.1,0.2-0.1,0-0.1C-428.7,275.2-428.7,275.2-428.7,275.2z M-411.5,302.2
	c0.4-1.7,5.6-0.9,4.6-0.9C-407.6,301.3-411.5,302.9-411.5,302.2z M-396.1,302.5c2.1,0,0.7,2.8-1.6,2.1c-3.3,0.1,0.3-2.2,0.9-2
	C-396.6,302.5-396.3,302.5-396.1,302.5L-396.1,302.5z"/>
</svg>
