<?xml version="1.0" encoding="utf-8"?>
<!-- Generator: Adobe Illustrator 19.0.0, SVG Export Plug-In . SVG Version: 6.00 Build 0)  -->
<svg version="1.1" id="Layer_1" xmlns="http://www.w3.org/2000/svg" xmlns:xlink="http://www.w3.org/1999/xlink" x="0px" y="0px"
	 viewBox="0 0 180 180" style="enable-background:new 0 0 180 180;" xml:space="preserve">
<path d="M161.1,92.8c-6.1-6.1-14.7-7.1-23.8-2.6l-12.5,6.9v-60c0-9.8-7.9-17.7-17.7-17.7c-2.6,0-5,0.6-7.2,1.6
	c-0.8-9-8.4-16.1-17.6-16.1c-8.3,0-15.2,5.7-17.1,13.4c-2.3-1.1-4.9-1.8-7.7-1.8c-9.8,0-17.7,7.9-17.7,17.7v1.3
	c-2.2-1-4.6-1.5-7.1-1.5c-9.8,0-17.7,7.9-17.7,17.7v60.9c0,35.2,28.7,63.9,63.9,63.9c16.2,0,32-7,44.7-19.7c0,0,37.5-39,37.5-39
	c3.3-3.3,5.2-7.8,5.2-12.5C166.2,100.6,164.4,96.2,161.1,92.8z M153.5,110.4l-37.5,39C105.4,160.1,92.2,166,78.8,166
	c-29.4,0-53.3-23.9-53.3-53.3V51.7c0-3.9,3.2-7.1,7.1-7.1s7.1,3.2,7.1,7.1V96c0,2.9,2.4,5.3,5.3,5.3c2.9,0,5.3-2.4,5.3-5.3V34.2
	c0-3.9,3.2-7.1,7.1-7.1s7.1,3.2,7.1,7.1V96c0,2.9,2.4,5.3,5.3,5.3c2.9,0,5.3-2.4,5.3-5.3V22.5c0-3.9,3.2-7.1,7.1-7.1
	c3.9,0,7.1,3.2,7.1,7.1V96c0,2.9,2.4,5.3,5.3,5.3c2.9,0,5.3-2.4,5.3-5.3V37.1c0-3.9,3.2-7.1,7.1-7.1c3.9,0,7.1,3.2,7.1,7.1V103
	l-9.7,5.4c-2.5,1.4-3.5,4.6-2.1,7.2c1.4,2.5,4.6,3.5,7.2,2.1l32.5-18c3.3-1.6,8-2.8,11.5,0.7C156.4,103.1,156.4,107.6,153.5,110.4z"
	/>
</svg>
