<?xml version="1.0" encoding="utf-8"?>
<!-- Generator: Adobe Illustrator 19.0.0, SVG Export Plug-In . SVG Version: 6.00 Build 0)  -->
<svg version="1.1" id="Layer_1" xmlns="http://www.w3.org/2000/svg" xmlns:xlink="http://www.w3.org/1999/xlink" x="0px" y="0px"
	 viewBox="0 0 180 180" style="enable-background:new 0 0 180 180;" xml:space="preserve">
<path d="M150,8.1H60.5h-2.1h-0.5L28.6,40.7v0.2v1.4v128.3c0,0.9,0.8,1.7,1.7,1.7H150c0.9,0,1.7-0.8,1.7-1.7V9.8
	C151.7,8.9,151,8.1,150,8.1z M58.4,10.2v29c0,0.9-0.7,1.7-1.7,1.7H31.1L58.4,10.2z M149.7,169.2c0,0.9-0.7,1.7-1.7,1.7H31.9
	c-0.9,0-1.7-0.7-1.7-1.7V42.3h28.5c0.9,0,1.7-0.8,1.7-1.7V9.9H148c0.9,0,1.7,0.8,1.7,1.7V169.2z"/>
</svg>
