<?xml version="1.0" encoding="utf-8"?>
<!-- Generator: Adobe Illustrator 19.0.0, SVG Export Plug-In . SVG Version: 6.00 Build 0)  -->
<svg version="1.1" id="Layer_1" xmlns="http://www.w3.org/2000/svg" xmlns:xlink="http://www.w3.org/1999/xlink" x="0px" y="0px"
	 viewBox="0 0 180 180" style="enable-background:new 0 0 180 180;" xml:space="preserve">
<g>
	<path d="M104.1,175c-8.8,0-16.8-1.2-25-4.8c-2.4-1.1-4.7-2.2-6.8-3.2c-0.5-0.2-1-0.5-1.5-0.7c-12.6,0.4-23.9-4.3-30.9-13.3
		c-12.5-16.1-24.9-40.6-31.6-62.4c-6-19.5,5.5-41.3,19.3-51.9C38,30.7,50.3,25.9,62.1,21.1c4.5-1.8,9-3.6,13.2-5.5
		c1.8-0.8,3.5-1.6,5.2-2.4c8.9-4.2,17.3-8.1,28.9-8.4c0,0,28.5-0.7,39.8,23.9c1.1,2.4,1.9,4.7,2.6,7c0.9,2.9,1.6,5.4,3.4,7.3
		c1.1,1.1,2.5,2,4.2,3.1c3.4,2.1,7.6,4.7,9.8,10.4c5.8,15,1.1,34.1-3,50.9c-1.9,8-3.8,15.5-4.3,21.7c-2.5,28.1-17.7,43-46.5,45.4
		C111.6,174.8,107.8,175,104.1,175z M89.4,161.7c7.6,2.1,15.5,2.1,25.2,1.3c23.2-2,34-12.4,36-35c0.6-7.1,2.6-15,4.6-23.4
		c3.7-15.2,7.9-32.4,3.4-44.1c-0.8-2-2.3-3-5.1-4.7c-2.1-1.3-4.4-2.7-6.6-5c-3.6-3.8-5-8.3-6.1-11.9c-0.6-1.8-1.1-3.5-1.8-4.9
		c-2.1-3.9-9.3-15.7-21.7-16.7c0.1,4,1.2,9,3.1,14c1.8,4.9,4.4,9.8,7.2,14.9c3.7,6.9,7.5,14,9.6,21.6c5,18.2-4.3,32.2-12.6,44.5
		c-3.3,5-6.4,9.7-8.8,14.6l-1.5,3.2C108.9,142,102.8,155,89.4,161.7z M77.9,153.7c14.4-3.4,20.1-15.5,26-28.3l1.5-3.3
		c2.7-5.7,6.2-10.9,9.6-16c7.9-11.8,14.7-22,11-35.1c-1.7-6.3-5.1-12.6-8.6-19.2c-2.8-5.3-5.8-10.8-7.8-16.4
		c-1.3-3.4-3.7-11.1-3.8-18.7c-7.3,0.9-13.2,3.7-20.4,7.1c-1.7,0.8-3.5,1.6-5.4,2.5c-4.4,2-9,3.8-13.7,5.7
		c-11.2,4.4-22.7,9-31.7,15.9C23.8,56,15.1,73,19.4,87.1c6.2,20.2,18.2,43.8,29.7,58.7c1.4,1.9,3,3.7,5.1,4.7
		C65.4,156.4,76.3,154.1,77.9,153.7z"/>
</g>
</svg>
