<?xml version="1.0" encoding="utf-8"?>
<!-- Generator: Adobe Illustrator 19.0.0, SVG Export Plug-In . SVG Version: 6.00 Build 0)  -->
<svg version="1.1" id="Layer_1" xmlns="http://www.w3.org/2000/svg" xmlns:xlink="http://www.w3.org/1999/xlink" x="0px" y="0px"
	 viewBox="0 0 180 180" style="enable-background:new 0 0 180 180;" xml:space="preserve">
<path d="M159.4,69.5c1.2-2.3,2-5,2-8.1v-24c0-5.2-2.1-9.7-5.9-12.9c-3.2-2.7-7.5-4.1-12.1-4.1c-2.9,0-5.8,0.6-8.4,1.8
	c-0.6-4.1-2.7-7.7-6.1-10.3c-3.4-2.6-7.9-4-12.6-4c-4.2,0-8.5,1.2-11.9,3.5c-0.9-1.4-2.1-2.6-3.5-3.7c-3.4-2.6-7.9-4-12.6-4
	c-5.7,0-11.3,2.1-15,6.3c-0.1-0.1-0.3-0.2-0.4-0.3c-3.4-2.6-7.9-4-12.6-4c-9.4,0-18.9,5.8-18.9,17v12.1
	c-10.4,2.9-19.8,15.7-22.6,31.6c-1.8,10.1-4.1,43.7,39,61.1v45.9c0,2.7,2.2,4.9,4.9,4.9c2.7,0,4.9-2.2,4.9-4.9v-52.7l-3.2-1.2
	c-38.2-13.9-37.9-40.6-35.9-51.4C31,54.1,39.7,43.8,45.8,43.8h38.2c5.8,0,7.3,6.5,7.3,10.3c0,3.8-1.5,10.3-7.3,10.3H55.9
	c-0.4,0-0.7,0.1-1.1,0.1c-2.3,0.4-4.1,2.4-4.1,4.8c0,2.7,2.2,4.9,4.9,4.9h33.7c12.8,0,24,11.8,24,25.2c0,2.7,2.2,4.9,4.9,4.9
	c2.7,0,4.9-2.2,4.9-4.9c0-7.9-2.7-15.2-7.1-21.1c0.1,0,0.2,0,0.3,0c5.1,0,10.3-1.7,13.9-5.1c0.3,0.3,0.7,0.7,1.1,1
	c3.2,2.7,7.5,4.1,12.1,4.1c2.7,0,5.4-0.5,7.9-1.6c3.8,15.3,3.1,29.2-2.1,36.3c-2.9,4-7.2,5.9-13,5.9h-4.9v54.2
	c0,2.7,2.2,4.9,4.9,4.9s4.9-2.2,4.9-4.9v-44.8c6.7-1,12.1-4.3,16-9.5C164.8,108.4,165.7,90,159.4,69.5z M60.4,15.3
	c2.5,0,5,0.7,6.6,2c1.6,1.3,2.5,3,2.5,5.2v4.6V34H51.3V22.5C51.3,16.8,57,15.3,60.4,15.3z M84.1,34h-4.8v-6.9v-4.6v-1.9
	c0-5.7,5.7-7.2,9.1-7.2c3.4,0,9.1,1.5,9.1,7.2v4.2v16.3C94.6,36.9,90.1,34,84.1,34z M116.3,68.6c-3.4,0-9.1-1.5-9.1-7.2v-4.2V24.9
	c0-5.7,5.7-7.2,9.1-7.2c3.4,0,9.1,1.5,9.1,7.2v12.5v24C125.4,67.1,119.7,68.6,116.3,68.6z M143.4,68.6c-0.8,0-8.2-0.2-8.2-7.2v-24
	c0-7,7.4-7.2,8.2-7.2c2.3,0,4.4,0.7,5.9,1.9c1.5,1.3,2.3,3,2.3,5.3v24C151.6,68.4,144.2,68.6,143.4,68.6z"/>
</svg>
