<?xml version="1.0" encoding="utf-8"?>
<!-- Generator: Adobe Illustrator 19.0.0, SVG Export Plug-In . SVG Version: 6.00 Build 0)  -->
<svg version="1.1" id="Layer_1" xmlns="http://www.w3.org/2000/svg" xmlns:xlink="http://www.w3.org/1999/xlink" x="0px" y="0px"
	 viewBox="0 0 180 180" style="enable-background:new 0 0 180 180;" xml:space="preserve">
<g>
	<path id="XMLID_9_" d="M165.6,45.2c0-5.3-1.4-10.6-4.2-15.5c-8.6-14.9-27.7-20-42.6-11.4c-14.9,8.6-20,27.7-11.4,42.5
		c1.9,3.4,4.5,6.2,7.4,8.5L97.2,79.6L37.1,45c-8.8-5-20-2-25,6.7c-0.4,0.8-0.2,1.8,0.5,2.3l64.5,37.2l-64.5,37.2
		c-0.7,0.5-1,1.5-0.5,2.3c5,8.7,16.2,11.8,25,6.7l60-34.7l17.7,10.3c-2.9,2.3-5.5,5.1-7.4,8.5c-8.6,14.9-3.5,34,11.4,42.5
		c14.9,8.6,34,3.5,42.6-11.4c3.3-5.6,4.5-11.8,4.1-17.7c-0.7-10-6.2-19.5-15.5-24.9l-32.7-18.9L150,72.4
		c9.3-5.4,14.8-14.9,15.5-24.9C165.6,46.7,165.6,46,165.6,45.2L165.6,45.2z M162.2,137.2c0,4.7-1.2,9.4-3.8,13.8
		c-7.7,13.3-24.6,17.8-38,10.1c-13.3-7.7-17.8-24.6-10.2-37.9c2.2-3.8,5.1-6.8,8.5-9.1c0.9-0.6,0.8-2.3-0.1-2.9L16.2,52.1
		c4.5-5.9,12.5-8,19.2-4.1l112.9,65.2c8.3,4.8,13.2,13.2,13.8,22C162.2,135.8,162.2,136.6,162.2,137.2L162.2,137.2z M162.2,45.3
		c0,0.7,0,1.3-0.1,2c-0.6,8.9-5.5,17.2-13.8,22l-34.4,19.9l-13.3-7.6l18.2-10.5c1-0.5,1-2.2,0.1-2.9c-3.4-2.3-6.4-5.3-8.5-9.1
		c-7.6-13.3-3.1-30.2,10.2-37.9c13.3-7.6,30.3-3.2,38,10.1C161,35.8,162.2,40.6,162.2,45.3L162.2,45.3z M152.9,44.4
		c0-0.4-0.1-0.8-0.1-1.3c-0.3-2.4-1-4.7-2.3-6.9c-5.1-8.8-16.4-11.8-25.2-6.8c-8.8,5.1-11.9,16.4-6.8,25.2
		c5.1,8.8,16.3,11.8,25.2,6.7C149.8,57.7,153.2,51.1,152.9,44.4L152.9,44.4z M152.9,136.7c-0.1-6.3-3.5-12.3-9.2-15.6
		c-8.8-5.1-20.1-2.1-25.2,6.7c-5.1,8.8-2.1,20.1,6.8,25.2c8.8,5,20.1,2,25.2-6.8c1.3-2.2,2-4.6,2.3-6.9
		C152.9,138.5,152.9,137.6,152.9,136.7L152.9,136.7z M149.5,45.7c-0.1,5.1-2.8,10-7.5,12.7c-7.2,4.1-16.3,1.7-20.5-5.5
		c-4.2-7.2-1.7-16.4,5.5-20.6c7.2-4.2,16.3-1.7,20.5,5.5c1.1,1.8,1.7,3.7,1.9,5.6C149.5,44.2,149.5,45,149.5,45.7L149.5,45.7z
		 M149.5,136.8c0,0.7,0,1.5-0.1,2.2c-0.2,1.9-0.8,3.9-1.9,5.6c-4.1,7.2-13.3,9.7-20.5,5.5c-7.2-4.1-9.7-13.3-5.5-20.6
		c4.2-7.2,13.3-9.6,20.5-5.5C146.7,126.9,149.3,131.7,149.5,136.8L149.5,136.8z M93.7,100.8l-58.3,33.7c-6.7,3.8-14.7,1.8-19.2-4.1
		l64.3-37.1L93.7,100.8L93.7,100.8z"/>
</g>
</svg>
