<?xml version="1.0" encoding="utf-8"?>
<!-- Generator: Adobe Illustrator 19.0.0, SVG Export Plug-In . SVG Version: 6.00 Build 0)  -->
<svg version="1.1" id="Layer_1" xmlns="http://www.w3.org/2000/svg" xmlns:xlink="http://www.w3.org/1999/xlink" x="0px" y="0px"
	 viewBox="0 0 180 180" style="enable-background:new 0 0 180 180;" xml:space="preserve">
<path d="M138.7,73.9L138.7,73.9c-0.6-0.1-1.3-0.1-1.9-0.1c-2.1,0-4,0.5-5.8,1.4c0,0,0-0.1,0-0.1c0-6.6-4.8-12.3-11.5-13.2
	c-0.6-0.1-1.2-0.1-1.9-0.1c-2.1,0-4.2,0.5-6,1.5l5.7-43.8c0.1-0.6,0.1-1.2,0.1-1.9c0-6.6-4.8-12.3-11.5-13.2
	c-0.6-0.1-1.2-0.1-1.9-0.1c-6.6,0-12.3,4.8-13.2,11.5l-9.6,63.6l-16.7-61c-1.6-6-7-9.9-12.9-9.9c-1.1,0-2.3,0.1-3.5,0.5
	c-6,1.6-9.9,7-9.9,12.9c0,1.1,0.1,2.3,0.5,3.5l11.2,46.4c-1.1,0.2-2.3,0.5-3.6,1c-0.5,0.2-1,0.4-1.5,0.6c-0.9,0.4-1.5,1.3-1.6,2.3
	c0,0,0,0.1-0.1,0.4c-0.3,2.3-2.4,13.5-13.3,27.6v0c-0.2,0.3-0.4,0.6-0.4,0.9c0,0,0,0,0,0.1c-0.1,0.3-0.1,0.6-0.1,0.9c0,0,0,0,0,0.1
	c0,0.1,1.4,17.3,7.1,34.8c2.9,8.7,6.8,17.6,12.3,24.4c5.5,6.8,12.9,11.7,22.3,11.7h0c0.2,0,0.3,0,0.3,0l47.7,0
	c17,0,30.7-13.8,30.7-30.7l0.4-56.6c0.1-0.6,0.1-1.3,0.1-1.9C150.2,80.6,145.3,74.9,138.7,73.9z M117.6,67.2L117.6,67.2
	c0.4,0,0.7,0,1.1,0.1c3.9,0.5,6.7,3.9,6.7,7.7c0,0.4,0,0.7-0.1,1.1l-0.8,5.7l-3.1,22.4l-0.4,2.7l-0.6,4.6c0,0.1,0,0.1,0,0.2
	c-0.6,3.8-3.9,6.6-7.7,6.6c-0.4,0-0.7,0-1.1-0.1c-3.4-0.5-6-3.1-6.6-6.4c0,0,0,0,0-0.1c-0.1-0.4-0.1-0.9-0.1-1.4
	c0-0.4,0-0.7,0.1-1.1l1.7-12.1l2.2-15.3l1.1-7.9c0.1-0.8,0.3-1.5,0.6-2.1c0-0.1,0-0.2,0.1-0.2C111.8,69,114.6,67.2,117.6,67.2z
	 M58.6,115.6c0,0-0.1-0.1-0.1-0.1c-0.1-0.1-0.2-0.3-0.4-0.7c0-0.1,0-0.1-0.1-0.2c0,0,0,0,0,0c-0.2-0.6-0.4-1.4-0.4-2.8
	c0-0.2,0-0.3,0-0.5c0-0.2,0-0.4,0-0.6c0-0.2,0-0.4,0.1-0.6c0-0.3,0.1-0.5,0.1-0.8c0-0.2,0.1-0.4,0.1-0.7c0-0.3,0.1-0.6,0.2-0.9
	c0-0.2,0.1-0.5,0.2-0.7c0-0.1,0.1-0.3,0.1-0.4l1.7,9.4L58.6,115.6z M144.2,145.6c0,13.9-11.3,25.2-25.2,25.2H71.4
	c-0.1,0-0.3,0-0.4,0c-7.3,0-13.1-3.7-18-9.7c-7.3-9-12-23.1-14.7-34.9c-1.4-5.9-2.2-11.2-2.8-15.1c-0.3-2.3-0.5-4.1-0.6-5.1
	c0.2-0.2,0.3-0.5,0.5-0.7c0.4-0.5,0.7-1,1.1-1.5c0.2-0.3,0.5-0.7,0.7-1c0.3-0.5,0.7-1,1-1.4c0.2-0.3,0.4-0.6,0.6-1
	c0.3-0.5,0.6-0.9,0.9-1.4c0.2-0.3,0.4-0.6,0.5-0.9c0.3-0.5,0.6-0.9,0.8-1.4c0.2-0.3,0.3-0.6,0.5-0.8c0.3-0.5,0.5-0.9,0.8-1.4
	c0.1-0.3,0.3-0.5,0.4-0.8c0.2-0.5,0.5-0.9,0.7-1.4c0.1-0.2,0.2-0.5,0.3-0.7c0.2-0.4,0.4-0.9,0.6-1.3c0.1-0.2,0.2-0.4,0.3-0.6
	c0.2-0.4,0.4-0.9,0.6-1.3c0.1-0.2,0.1-0.4,0.2-0.5c0.2-0.4,0.4-0.9,0.5-1.3c0.1-0.2,0.1-0.3,0.2-0.5c0.2-0.4,0.3-0.8,0.4-1.2
	c0-0.1,0.1-0.3,0.1-0.4c0.1-0.4,0.3-0.8,0.4-1.2c0-0.1,0.1-0.2,0.1-0.3c0.1-0.4,0.2-0.8,0.3-1.1c0-0.1,0-0.2,0.1-0.2
	c0.1-0.4,0.2-0.7,0.3-1.1c0-0.1,0-0.2,0.1-0.2c0.1-0.3,0.2-0.6,0.2-0.9c0-0.1,0.1-0.2,0.1-0.4c0-0.2,0.1-0.4,0.1-0.6
	c0.1-0.3,0.1-0.6,0.2-0.9c1-0.4,1.9-0.6,2.6-0.7c0,0,0,0,0.1,0c0.4-0.1,0.8-0.1,1.1-0.1c0.6,0,1.2,0.1,1.6,0.2
	c0.7,0.2,1.3,0.6,1.8,1.1c0.2,0.2,0.4,0.5,0.6,0.7c0.6,0.7,1,1.7,1.3,2.8c0.8,2.6,1.1,5.8,1.1,7.5c0,0.3,0,0.5,0,0.7v0
	c-0.1,0.3-0.3,0.6-0.4,0.9c-0.3,0.6-0.6,1.3-0.9,1.9c-0.6,1.3-1.1,2.5-1.5,3.6c-2.8,7-3.8,11.9-3.8,15.5c0,0.6,0,1.2,0.1,1.8
	c0.4,4.2,2.6,6.3,3.7,6.9c0.2,0.1,0.3,0.2,0.4,0.2l0.1,0l0.2,0.1l5.3,1.6l0.9,0.3c0.2,0.1,0.5,0.1,0.8,0.1c0,0,0,0,0,0
	c0,0,0.1,0,0.1,0c0.1,0,0.2,0,0.3,0c0.8,0,4.8,0.2,9.2,1.6c5,1.6,10.3,4.6,12.9,10.2c0.5,1,1.5,1.6,2.5,1.6c0.4,0,0.8-0.1,1.2-0.3
	c1.4-0.6,2-2.3,1.4-3.7c-3.6-7.7-10.5-11.4-16.3-13.2c-3.7-1.1-7-1.6-9-1.7l-1.7-9.4l-0.7-4.1l-1.7-6.9c0.3-0.6,0.5-1.2,0.8-1.8
	c0.4-1,0.9-2,1.4-3l0,0c0,0,0-0.1,0.1-0.1c0.2-0.3,0.2-0.7,0.3-1c0,0,0-0.4,0-0.9c0-0.2,0-0.4,0-0.6l0,0c0-0.5,0-1.2-0.1-1.9
	c0-0.3,0-0.7-0.1-1c0-0.4-0.1-0.8-0.1-1.2c-0.3-2.9-1.1-6.4-3.2-9.4c-0.4-0.5-0.8-1-1.3-1.5c-1.1-1.1-2.4-1.9-3.9-2.5l-11.6-48
	c-0.2-0.8-0.3-1.4-0.3-2.1c0-3.5,2.3-6.6,5.8-7.6c0.7-0.2,1.4-0.3,2-0.3c3.5,0,6.6,2.3,7.6,5.8l18.2,66.7l1.2,4.6
	c0.1,0.3,0.2,0.5,0.4,0.8c0.6,0.9,1.7,1.4,2.8,1.2c0,0,0.1,0,0.1,0c1.5,0.2,2.9-0.8,3.2-2.3l0.2-1.6l1-6.5l9.9-66.1
	c0.5-3.9,3.9-6.8,7.8-6.8c0.4,0,0.7,0,1.1,0.1c3.9,0.5,6.7,3.9,6.7,7.8c0,0.4,0,0.7-0.1,1.1l-12.4,90c-0.1,0.6-0.1,1.2-0.1,1.9
	c0,0.8,0.1,1.5,0.2,2.3c1,5.6,5.4,10.1,11.3,11c0.6,0.1,1.3,0.1,1.9,0.1c5.7,0,10.7-3.6,12.6-8.9c1.9,1.8,4.4,3,7.2,3.4
	c0.6,0.1,1.2,0.1,1.8,0.1h0.1c3.9,0,7.4-1.7,9.9-4.4L144.2,145.6C144.2,145.6,144.2,145.6,144.2,145.6z M144.6,88.3l-0.5,3.3
	l-0.3,1.9l-1.3,9.2l-0.5,3.5c-0.1,0.5-0.2,1-0.3,1.4c-1.1,3.1-4.1,5.3-7.4,5.3c-0.4,0-0.7,0-1.1-0.1c-3.3-0.5-5.9-3-6.5-6.1
	c0-0.1-0.1-0.2-0.1-0.3c0,0,0-0.1,0-0.1c-0.1-0.5-0.1-0.9-0.1-1.4c0-0.3,0-0.7,0.1-1.1l1.6-11.5l0.9-6.5c0.1-0.5,0.2-1,0.4-1.5
	c0.1-0.3,0.2-0.6,0.4-0.9c0.1-0.1,0.1-0.2,0.2-0.3c1.3-2.5,3.9-4.1,6.8-4.1h0c0.4,0,0.7,0,1.1,0.1h0c3.9,0.5,6.7,3.9,6.7,7.7
	C144.6,87.5,144.6,87.9,144.6,88.3z"/>
</svg>
